<svg width="22" height="22" viewBox="0 0 22 22" fill="none" xmlns="http://www.w3.org/2000/svg">
<g opacity="0.5">
<mask id="mask0_2471_239" style="mask-type:alpha" maskUnits="userSpaceOnUse" x="0" y="0" width="22" height="22">
<rect width="22" height="22" fill="#D9D9D9"/>
</mask>
<g mask="url(#mask0_2471_239)">
<path fill-rule="evenodd" clip-rule="evenodd" d="M20.1964 6.69964C22.1893 10.1745 20.7413 15.1325 16.7086 18.1502C12.677 21.1679 7.49064 21.1755 4.69075 18.3048C3.96577 17.5613 3.33891 16.8253 2.63013 15.8874L10.5325 9.97245L18.4349 4.0575C19.1427 4.99543 19.6791 5.79869 20.1954 6.69964L20.1964 6.69964Z" fill="url(#paint0_linear_2471_239)"/>
<path style="mix-blend-mode:screen" fill-rule="evenodd" clip-rule="evenodd" d="M19.6443 7.72169C21.0228 10.1239 20.2492 13.8377 17.7656 16.3091C15.282 18.7806 11.9696 19.1324 10.0938 17.2253C9.60794 16.7312 9.18495 16.2361 8.70386 15.5998L13.572 10.7555L18.4401 5.91125C18.9212 6.54856 19.288 7.09861 19.6452 7.72074L19.6443 7.72169Z" fill="url(#paint1_radial_2471_239)"/>
<g style="mix-blend-mode:multiply">
<path fill-rule="evenodd" clip-rule="evenodd" d="M20.0145 7.67962C21.7112 10.6471 20.5099 14.9839 17.1212 17.701C13.9698 20.2274 9.96573 20.5195 7.50976 18.6C5.54726 18.3402 3.79912 17.4317 2.63306 15.8868C3.34089 16.8247 3.96774 17.5606 4.69367 18.3042C7.49356 21.1749 12.6799 21.1673 16.7116 18.1496C20.7433 15.1319 22.1913 10.1748 20.1993 6.699C19.6848 5.8028 19.1514 5.00143 18.4473 4.06824C19.1447 4.99669 19.5639 6.06075 19.723 7.18551C19.822 7.34768 19.9192 7.51175 20.0145 7.67962Z" fill="#DFDCE9"/>
</g>
<g style="mix-blend-mode:screen">
<path fill-rule="evenodd" clip-rule="evenodd" d="M18.7907 4.63718C21.3114 7.97448 19.9301 13.2427 15.7059 16.4045C11.4818 19.5664 6.01446 19.4232 3.49371 16.0859C0.972949 12.7486 2.35432 7.48038 6.57844 4.31853C10.8026 1.15763 16.2699 1.29988 18.7907 4.63718Z" fill="#12123B"/>
</g>
<path fill-rule="evenodd" clip-rule="evenodd" d="M18.4358 4.05845C21.1004 7.58637 19.7219 13.0945 15.3577 16.3606C10.9935 19.6268 5.29469 19.4153 2.63104 15.8874C-0.033574 12.3595 1.34493 6.85138 5.7091 3.58521C10.0733 0.319041 15.7721 0.530526 18.4358 4.05845Z" fill="url(#paint2_radial_2471_239)"/>
<g style="mix-blend-mode:screen">
<path fill-rule="evenodd" clip-rule="evenodd" d="M8.7276 16.6888C8.59613 16.8662 8.33891 16.9677 8.06264 16.9288C7.82447 16.8946 7.62823 16.7656 7.5301 16.5978C6.3688 16.3977 5.32753 15.8723 4.5492 15.0093C2.30186 12.5189 3.08877 8.16777 6.30592 5.29137C8.06264 3.72088 10.1804 2.91477 12.1077 2.91192C12.2201 2.68621 12.5125 2.54965 12.8317 2.59422C13.1261 2.63595 13.3557 2.81993 13.4243 3.0428C13.831 3.1272 14.2226 3.25333 14.5903 3.42119C14.7275 3.32351 14.9418 3.33205 15.1181 3.45439C15.2619 3.55492 15.3429 3.70571 15.3429 3.84607C15.6535 4.0585 15.9412 4.30697 16.1994 4.59338C18.4467 7.08379 17.6598 11.4349 14.4427 14.3113C12.7126 15.8581 10.631 16.6632 8.7276 16.6898L8.7276 16.6888Z" fill="#56568E"/>
</g>
<path fill-rule="evenodd" clip-rule="evenodd" d="M16.5444 5.14301C18.5364 7.78136 17.3894 11.9874 13.9817 14.5385C10.574 17.0896 6.19558 17.0184 4.20356 14.3801C2.21153 11.7417 3.35854 7.53574 6.76623 4.98463C10.1739 2.43353 14.5524 2.50465 16.5444 5.14301Z" fill="url(#paint3_radial_2471_239)"/>
<path fill-rule="evenodd" clip-rule="evenodd" d="M7.42304 5.85523C10.5421 3.52035 14.4737 3.38284 16.6458 5.39812C16.7154 5.46261 16.782 5.529 16.8478 5.59728C16.8001 5.51667 16.7506 5.437 16.6982 5.35829C16.6496 5.28526 16.5982 5.21413 16.5448 5.14301C14.5528 2.50465 10.1743 2.43353 6.76665 4.98463C3.35896 7.53479 2.211 11.7417 4.20398 14.3801C4.25733 14.4503 4.31258 14.5195 4.36879 14.5868C4.42976 14.6589 4.49264 14.7291 4.55742 14.7964C4.50979 14.7149 4.46406 14.6314 4.42119 14.5479C3.07888 11.9115 4.30496 8.19011 7.42399 5.85523L7.42304 5.85523Z" fill="url(#paint4_linear_2471_239)"/>
<path style="mix-blend-mode:multiply" fill-rule="evenodd" clip-rule="evenodd" d="M14.911 4.35397C15.5607 4.58916 16.1495 4.93721 16.6458 5.39812C16.7154 5.46261 16.782 5.529 16.8478 5.59728C16.8001 5.51667 16.7506 5.437 16.6982 5.35829C16.6496 5.28526 16.5982 5.21413 16.5448 5.14301C14.5528 2.50465 10.1743 2.43353 6.76665 4.98463C3.35896 7.53479 2.211 11.7417 4.20398 14.3801C4.25733 14.4503 4.31258 14.5195 4.36879 14.5868C4.42976 14.6589 4.49264 14.7291 4.55742 14.7964C4.50979 14.7149 4.46406 14.6314 4.42119 14.5479C4.21446 14.142 4.0687 13.7096 3.98106 13.261C2.72925 10.8076 3.84101 7.31761 6.70568 5.10887C9.43507 3.00444 12.8551 2.75787 14.912 4.35397L14.911 4.35397Z" fill="url(#paint5_radial_2471_239)"/>
<path d="M4.93677 13.4925L5.27877 13.2212L7.12695 13.1985L7.2889 13.4517L5.50932 13.5892L4.93677 13.4925Z" fill="url(#paint6_linear_2471_239)"/>
<path opacity="0.72" d="M6.47017 6.88672L9.26625 6.68756C10.056 6.63161 10.5647 6.81464 10.7915 7.23572C10.9401 7.51169 10.9753 7.86354 10.8991 8.2903C10.7943 8.87355 10.5066 9.33256 10.0351 9.66543L10.0312 9.68535C10.5676 9.92718 10.7638 10.4478 10.6209 11.2473L10.6 11.3649C10.438 12.2677 9.93502 12.9288 9.09096 13.346C8.87375 13.439 8.66798 13.4921 8.47268 13.5063L5.24219 13.7358L6.46922 6.88767L6.47017 6.88672ZM7.82582 8.21917L7.6048 9.45205L8.71085 9.37333C9.03857 9.34962 9.24339 9.11348 9.32437 8.66301C9.38057 8.35005 9.27292 8.18219 9.00236 8.15943C8.93568 8.14805 8.8366 8.1471 8.70608 8.15658L7.82582 8.21917ZM7.35997 10.8215L7.12942 12.1084L8.35646 12.0212C8.60701 12.0032 8.79945 11.8628 8.93473 11.5982C8.98522 11.4692 9.01856 11.3602 9.03475 11.272C9.10335 10.8869 8.92424 10.7096 8.49554 10.7409L7.35997 10.8215Z" fill="url(#paint7_linear_2471_239)"/>
<path d="M14.4495 6.31947C15.404 6.25119 15.9909 6.53191 16.211 7.15973C16.3986 7.52295 16.4434 7.97722 16.3462 8.52158L16.3253 8.63917C16.1214 9.77721 15.4574 10.571 14.3332 11.0215C14.0274 11.1201 13.7026 11.1827 13.3606 11.2064L12.5013 11.2671L12.265 12.5853C12.1955 12.9723 11.8716 13.2634 11.4771 13.2909L10.5273 13.3582L11.7544 6.51009L14.4504 6.31853L14.4495 6.31947ZM13.0853 7.99998L12.7909 9.6435L13.5502 9.58944C14.0732 9.55245 14.3866 9.45951 14.4904 9.30967C14.6086 9.14086 14.6848 8.96067 14.7191 8.77195C14.8267 8.17163 14.5524 7.89566 13.896 7.94213L13.0862 7.99998L13.0853 7.99998Z" fill="url(#paint8_linear_2471_239)"/>
<path d="M10.0132 13.1864L10.5257 13.36L11.1592 13.268L10.8353 13.1295L10.0132 13.1864Z" fill="url(#paint9_linear_2471_239)"/>
<path d="M5.86225 7.26293C5.91941 6.94144 6.18902 6.6996 6.51673 6.67684L8.75645 6.51752C9.54622 6.46156 10.0549 6.6446 10.2817 7.06567C10.4303 7.34164 10.4655 7.69349 10.3893 8.12025C10.2845 8.7035 9.99683 9.16251 9.52526 9.49538L9.52145 9.5153C10.0578 9.75713 10.254 10.2778 10.1111 11.0773L10.0902 11.1949C9.92824 12.0977 9.42523 12.7587 8.58116 13.176C8.36396 13.2689 8.15818 13.322 7.96288 13.3363L5.13918 13.5373C4.93245 13.5515 4.76764 13.3695 4.80384 13.1665L5.8613 7.26483L5.86225 7.26293ZM7.2722 8.29096L7.16645 8.88179C7.13025 9.08474 7.29506 9.26683 7.50179 9.2526L8.20105 9.20329C8.52877 9.17958 8.73359 8.94343 8.81457 8.49296C8.87078 8.18 8.76312 8.01214 8.49257 7.98938C8.42588 7.978 8.3268 7.97705 8.19629 7.98653L7.56181 8.03205C7.417 8.04249 7.29697 8.1487 7.2722 8.29096ZM6.80539 10.8933L6.69012 11.5382C6.65392 11.7411 6.81873 11.9232 7.02546 11.909L7.84571 11.8502C8.09626 11.8322 8.2887 11.6918 8.42398 11.4272C8.47447 11.2982 8.50781 11.1892 8.524 11.101C8.5926 10.7159 8.41349 10.5386 7.98479 10.5699L7.09596 10.6334C6.95115 10.6439 6.83016 10.751 6.80539 10.8933Z" fill="url(#paint10_linear_2471_239)"/>
<path d="M13.9385 6.14784C14.8931 6.07956 15.4799 6.36027 15.7 6.98809C15.8876 7.35131 15.9324 7.80558 15.8352 8.34994L15.8143 8.46754C15.6104 9.60558 14.9464 10.3994 13.8223 10.8498C13.5165 10.9485 13.1916 11.0111 12.8496 11.0348L11.9903 11.0955L11.7207 12.6005C11.6711 12.8774 11.4387 13.0851 11.1567 13.105L10.0164 13.1857L11.1834 6.67513C11.2186 6.47692 11.3853 6.32708 11.5873 6.31285L13.9394 6.14594L13.9385 6.14784ZM12.5743 7.82929L12.2799 9.47281L13.0392 9.41875C13.5622 9.38176 13.8756 9.28882 13.9795 9.13898C14.0976 8.97017 14.1738 8.78998 14.2081 8.60126C14.3157 8.00094 14.0414 7.72497 13.385 7.77144L12.5743 7.82929Z" fill="url(#paint11_linear_2471_239)"/>
</g>
</g>
<defs>
<linearGradient id="paint0_linear_2471_239" x1="5.72401" y1="19.9763" x2="21.4769" y2="8.07735" gradientUnits="userSpaceOnUse">
<stop stop-color="#56568E"/>
<stop offset="0.69" stop-color="#56568E"/>
<stop offset="1" stop-color="#56568E"/>
</linearGradient>
<radialGradient id="paint1_radial_2471_239" cx="0" cy="0" r="1" gradientUnits="userSpaceOnUse" gradientTransform="translate(13.5318 10.9153) rotate(22.9667) scale(9.27827 9.24917)">
<stop stop-color="#D3D3F9"/>
<stop offset="0.125" stop-color="#D3D3F9"/>
<stop offset="0.25" stop-color="#D3D3F9"/>
<stop offset="0.375" stop-color="#D3D3F9"/>
<stop offset="0.5" stop-color="#2E2E6C"/>
<stop offset="0.625" stop-color="#3C3C74"/>
<stop offset="0.75" stop-color="#232348"/>
<stop offset="0.875" stop-color="#2F2F47"/>
<stop offset="1" stop-color="#040000"/>
</radialGradient>
<radialGradient id="paint2_radial_2471_239" cx="0" cy="0" r="1" gradientUnits="userSpaceOnUse" gradientTransform="translate(10.7679 0.426426) rotate(22.9667) scale(17.2666 17.2124)">
<stop stop-color="#8484C4"/>
<stop offset="1" stop-color="#7171BB"/>
</radialGradient>
<radialGradient id="paint3_radial_2471_239" cx="0" cy="0" r="1" gradientUnits="userSpaceOnUse" gradientTransform="translate(6.86561 -3.08081) rotate(22.9667) scale(21.0984 21.0322)">
<stop stop-color="#D3D3F9"/>
<stop offset="1" stop-color="#56568E"/>
</radialGradient>
<linearGradient id="paint4_linear_2471_239" x1="2.56718" y1="12.2098" x2="14.6821" y2="3.06045" gradientUnits="userSpaceOnUse">
<stop stop-color="#4B4A82"/>
<stop offset="1" stop-color="#020614"/>
</linearGradient>
<radialGradient id="paint5_radial_2471_239" cx="0" cy="0" r="1" gradientUnits="userSpaceOnUse" gradientTransform="translate(12.954 13.1525) rotate(22.9667) scale(11.8163 11.7793)">
<stop offset="0.51" stop-color="white"/>
<stop offset="0.68" stop-color="#E4DBC2"/>
<stop offset="1" stop-color="#AC9144"/>
</radialGradient>
<linearGradient id="paint6_linear_2471_239" x1="6.99643" y1="3.4512" x2="6.17219" y2="12.8814" gradientUnits="userSpaceOnUse">
<stop stop-color="#56568E"/>
<stop offset="0.69" stop-color="#56568E"/>
<stop offset="1" stop-color="#56568E"/>
</linearGradient>
<linearGradient id="paint7_linear_2471_239" x1="8.7299" y1="3.60063" x2="7.90566" y2="13.0318" gradientUnits="userSpaceOnUse">
<stop stop-color="#282877"/>
<stop offset="0.69" stop-color="#212B58"/>
<stop offset="1" stop-color="#181832"/>
</linearGradient>
<linearGradient id="paint8_linear_2471_239" x1="14.0494" y1="4.06615" x2="13.2251" y2="13.4964" gradientUnits="userSpaceOnUse">
<stop stop-color="#48487F"/>
<stop offset="0.5" stop-color="#414278"/>
<stop offset="1" stop-color="#3E3A50"/>
</linearGradient>
<linearGradient id="paint9_linear_2471_239" x1="11.4146" y1="3.83746" x2="10.5903" y2="13.2677" gradientUnits="userSpaceOnUse">
<stop stop-color="#56568E"/>
<stop offset="0.69" stop-color="#56568E"/>
<stop offset="1" stop-color="#56568E"/>
</linearGradient>
<linearGradient id="paint10_linear_2471_239" x1="7.61358" y1="6.50769" x2="7.61358" y2="13.5381" gradientUnits="userSpaceOnUse">
<stop stop-color="#C6D3FF"/>
<stop offset="1" stop-color="#45467C"/>
</linearGradient>
<linearGradient id="paint11_linear_2471_239" x1="13.9147" y1="5.15848" x2="12.9507" y2="13.1857" gradientUnits="userSpaceOnUse">
<stop stop-color="#C6D3FF"/>
<stop offset="1" stop-color="#45467C"/>
</linearGradient>
</defs>
</svg>
