<svg width="17" height="17" viewBox="0 0 17 17" fill="none" xmlns="http://www.w3.org/2000/svg">
<path d="M16.5 8.5C16.5 12.9183 12.9183 16.5 8.5 16.5C4.08172 16.5 0.5 12.9183 0.5 8.5C0.5 4.08172 4.08172 0.5 8.5 0.5C12.9183 0.5 16.5 4.08172 16.5 8.5Z" fill="url(#paint0_linear_962_1934)" stroke="#DA9E3D"/>
<path d="M3.66406 12L3.66406 4.92969L6.36914 4.92969C7.90234 4.92969 8.66406 5.71094 8.66406 6.76563C8.66406 7.625 8.11719 8.10352 7.42383 8.26953L7.42383 8.33789C8.17578 8.37695 8.9375 9.00195 8.9375 10.0762C8.9375 11.1797 8.14648 12 6.52539 12L3.66406 12ZM6.33008 10.9355C7.25781 10.9355 7.64844 10.5352 7.64844 9.97852C7.64844 9.34375 7.15039 8.85547 6.35937 8.85547L4.93359 8.85547L4.93359 10.9355L6.33008 10.9355ZM6.21289 7.9375C6.88672 7.9375 7.39453 7.54688 7.39453 6.92188C7.39453 6.375 7.00391 5.98438 6.24219 5.98438L4.93359 5.98438L4.93359 7.9375L6.21289 7.9375ZM9.47266 12L9.47266 4.92969L12.1289 4.92969C13.75 4.92969 14.6191 5.91602 14.6191 7.27344C14.6191 8.63086 13.7402 9.60742 12.1094 9.60742L10.7422 9.60742L10.7422 12L9.47266 12ZM10.7422 8.5625L11.9336 8.5625C12.8906 8.5625 13.3203 8.02539 13.3203 7.27344C13.3203 6.51172 12.8906 5.99414 11.9336 5.99414L10.7422 5.99414L10.7422 8.5625Z" fill="#1E1E1E"/>
<defs>
<linearGradient id="paint0_linear_962_1934" x1="8.5" y1="7.72496e-10" x2="8.5" y2="17" gradientUnits="userSpaceOnUse">
<stop stop-color="#F1CD2F"/>
<stop offset="1" stop-color="#E8A644"/>
</linearGradient>
</defs>
</svg>
