<svg width="17" height="18" viewBox="0 0 17 18" fill="none" xmlns="http://www.w3.org/2000/svg">
<path d="M16.5 9.40509C16.5 13.8234 12.9183 17.4051 8.5 17.4051C4.08172 17.4051 0.5 13.8234 0.5 9.40509C0.5 4.98681 4.08172 1.40509 8.5 1.40509C12.9183 1.40509 16.5 4.98681 16.5 9.40509Z" fill="url(#paint0_linear_962_37294)" stroke="#DA9E3D"/>
<path d="M3.66406 12.9051L3.66406 5.83478L6.36914 5.83478C7.90234 5.83478 8.66406 6.61603 8.66406 7.67072C8.66406 8.53009 8.11719 9.00861 7.42383 9.17462L7.42383 9.24298C8.17578 9.28204 8.9375 9.90704 8.9375 10.9813C8.9375 12.0848 8.14648 12.9051 6.52539 12.9051L3.66406 12.9051ZM6.33008 11.8406C7.25781 11.8406 7.64844 11.4402 7.64844 10.8836C7.64844 10.2488 7.15039 9.76056 6.35937 9.76056L4.93359 9.76056L4.93359 11.8406L6.33008 11.8406ZM6.21289 8.84259C6.88672 8.84259 7.39453 8.45197 7.39453 7.82697C7.39453 7.28009 7.00391 6.88947 6.24219 6.88947L4.93359 6.88947L4.93359 8.84259L6.21289 8.84259ZM9.47266 12.9051L9.47266 5.83478L12.1289 5.83478C13.75 5.83478 14.6191 6.82111 14.6191 8.17853C14.6191 9.53595 13.7402 10.5125 12.1094 10.5125L10.7422 10.5125L10.7422 12.9051L9.47266 12.9051ZM10.7422 9.46759L11.9336 9.46759C12.8906 9.46759 13.3203 8.93048 13.3203 8.17853C13.3203 7.41681 12.8906 6.89923 11.9336 6.89923L10.7422 6.89923L10.7422 9.46759Z" fill="#1E1E1E"/>
<defs>
<linearGradient id="paint0_linear_962_37294" x1="8.5" y1="0.90509" x2="8.5" y2="17.9051" gradientUnits="userSpaceOnUse">
<stop stop-color="#F1CD2F"/>
<stop offset="1" stop-color="#E8A644"/>
</linearGradient>
</defs>
</svg>
