<svg width="20" height="20" viewBox="0 0 20 20" fill="none" xmlns="http://www.w3.org/2000/svg">
<g clip-path="url(#clip0_962_1649)">
<path d="M19 17L0.999969 17L0.999969 11.9432L1.75082 11.9432C2.56479 11.9631 3.24123 11.3332 3.26153 10.5354C3.28182 9.7375 2.6392 9.07446 1.82522 9.05457C1.80042 9.05457 1.77562 9.05457 1.75082 9.05457L0.999969 9.05457L0.999969 4L19 4L19 9.05678L18.2491 9.05678C17.4351 9.03689 16.7587 9.66678 16.7384 10.4646C16.7181 11.2625 17.3607 11.9255 18.1747 11.9454C18.1995 11.9454 18.2243 11.9454 18.2491 11.9454L19 11.9454L19 17ZM2.49941 7.70418C4.07551 8.07991 5.04281 9.63584 4.6595 11.1807C4.40019 12.2283 3.56592 13.0439 2.49941 13.298L2.49941 15.5568L17.4983 15.5568L17.4983 13.298C15.9222 12.9223 14.9549 11.3664 15.3382 9.82149C15.5975 8.77389 16.4318 7.95835 17.4983 7.70418L17.4983 5.44322L2.49941 5.44322L2.49941 7.70197L2.49941 7.70418ZM14.4994 14.1091L5.50053 14.1091L5.50053 6.88864L14.4994 6.88864L14.4994 14.1091ZM6.99997 12.6681L13 12.6681L13 8.33407L6.99997 8.33407L6.99997 12.6681Z" fill="#959FDD"/>
</g>
<defs>
<clipPath id="clip0_962_1649">
<rect width="18" height="13" fill="white" transform="translate(0.999969 4)"/>
</clipPath>
</defs>
</svg>
