<svg width="20" height="20" viewBox="0 0 20 20" fill="none" xmlns="http://www.w3.org/2000/svg">
<g clip-path="url(#clip0_962_1642)">
<path d="M19 17L1.00003 17L1.00003 11.9432L1.75088 11.9432C2.56486 11.9631 3.24129 11.3332 3.26159 10.5354C3.28188 9.7375 2.63926 9.07446 1.82528 9.05457C1.80048 9.05457 1.77568 9.05457 1.75088 9.05457L1.00003 9.05457L1.00003 4L19 4L19 9.05678L18.2492 9.05678C17.4352 9.03689 16.7588 9.66678 16.7385 10.4646C16.7182 11.2625 17.3608 11.9255 18.1748 11.9454C18.1996 11.9454 18.2244 11.9454 18.2492 11.9454L19 11.9454L19 17ZM2.49947 7.70418C4.07557 8.07991 5.04287 9.63584 4.65956 11.1807C4.40026 12.2283 3.56598 13.0439 2.49947 13.298L2.49947 15.5568L17.4983 15.5568L17.4983 13.298C15.9222 12.9223 14.9549 11.3664 15.3382 9.82149C15.5976 8.77389 16.4318 7.95835 17.4983 7.70418L17.4983 5.44322L2.49947 5.44322L2.49947 7.70197L2.49947 7.70418ZM14.4995 14.1091L5.50059 14.1091L5.50059 6.88864L14.4995 6.88864L14.4995 14.1091ZM7.00003 12.6681L13 12.6681L13 8.33407L7.00003 8.33407L7.00003 12.6681Z" fill="url(#paint0_linear_962_1642)"/>
</g>
<defs>
<linearGradient id="paint0_linear_962_1642" x1="10" y1="4" x2="10" y2="17" gradientUnits="userSpaceOnUse">
<stop stop-color="#9B51AD"/>
<stop offset="1" stop-color="#492BB4"/>
</linearGradient>
<clipPath id="clip0_962_1642">
<rect width="18" height="13" fill="white" transform="translate(1.00003 4)"/>
</clipPath>
</defs>
</svg>
