<svg width="20" height="20" viewBox="0 0 20 20" fill="none" xmlns="http://www.w3.org/2000/svg">
<mask id="mask0_962_1620" style="mask-type:alpha" maskUnits="userSpaceOnUse" x="0" y="0" width="20" height="20">
<rect width="20" height="20" fill="#D9D9D9"/>
</mask>
<g mask="url(#mask0_962_1620)">
<path d="M15.3305 18L4.66947 18L4.66947 14L6.05895 14C6.20211 13.1495 6.62316 12.3663 7.25474 11.7684C6.63158 11.3053 6.12632 10.6989 5.78947 10L5.34316 10C3.58316 10.0926 2.09263 8.75368 2 7.00211C2 6.96 2 6.90947 2 6.86737L2 3.33053L5.33474 3.33053L5.33474 2L14.6653 2L14.6653 3.33053L18 3.33053L18 6.86737C17.9832 8.61895 16.5516 10.0168 14.8 10C14.7579 10 14.7074 10 14.6653 10L14.2189 10C13.8905 10.6905 13.3937 11.2968 12.7705 11.7516C13.4105 12.3495 13.8316 13.1326 13.9832 14L15.3305 14L15.3305 18ZM6 15.3305L6 16.6611L14 16.6611L14 15.3305L6 15.3305ZM8.55158 12.4337C7.99579 12.7958 7.59158 13.3516 7.42316 14L12.6189 14C12.4505 13.3516 12.0379 12.7958 11.4821 12.4253C10.5305 12.7368 9.50316 12.7368 8.55158 12.4337ZM6.66526 3.33053L6.66526 7.99579C6.66526 9.84 8.15579 11.3305 10 11.3305C11.8442 11.3305 13.3347 9.84 13.3347 7.99579L13.3347 3.33053L6.66526 3.33053ZM14.6653 4.66947L14.6653 8.00421C14.6653 8.22316 14.6484 8.45053 14.6147 8.66947L14.6653 8.66947C15.6842 8.75368 16.5768 8.00421 16.6611 6.98526C16.6611 6.94316 16.6611 6.90947 16.6611 6.86737L16.6611 4.66947L14.6568 4.66947L14.6653 4.66947ZM3.33053 4.66947L3.33053 6.86737C3.35579 7.88632 4.19789 8.69474 5.21684 8.66947C5.25895 8.66947 5.29263 8.66947 5.33474 8.66947L5.38526 8.66947C5.35158 8.45053 5.33474 8.22316 5.33474 8.00421L5.33474 4.66947L3.33053 4.66947Z" fill="#959FDD"/>
</g>
</svg>
