<svg width="20" height="20" viewBox="0 0 20 20" fill="none" xmlns="http://www.w3.org/2000/svg">
<mask id="mask0_962_1673" style="mask-type:alpha" maskUnits="userSpaceOnUse" x="0" y="0" width="20" height="20">
<rect x="3.05176e-05" width="20" height="20" fill="#D9D9D9"/>
</mask>
<g mask="url(#mask0_962_1673)">
<path d="M3.54636 20L2.00003 20L2.00003 2.13271L2.365 1.89632C3.23901 1.31519 4.2667 1 5.31359 1C6.81189 1.10835 8.27178 1.50233 9.62602 2.16226C10.9803 2.83204 12.4497 3.23587 13.9481 3.33437C15.3407 3.30482 16.6853 2.81234 17.7707 1.92587L19 1L19 12.4749L18.6831 12.7112C17.3384 13.8046 15.6769 14.4054 13.9673 14.4349C12.2577 14.3364 10.5961 13.8932 9.04975 13.1446C7.8876 12.5635 6.6198 12.2089 5.32319 12.1006C4.6989 12.1006 4.09382 12.2483 3.53675 12.534L3.53675 20L3.54636 20ZM5.31359 10.5049C6.81189 10.6133 8.27178 11.0073 9.62602 11.677C10.9803 12.3468 12.4497 12.7408 13.9481 12.8491C15.2062 12.8294 16.4356 12.4158 17.4537 11.6672L17.4537 4.00415C16.3876 4.60498 15.187 4.93002 13.9673 4.93002C12.2577 4.83152 10.5865 4.38828 9.04975 3.63971C7.8876 3.05858 6.6198 2.70399 5.3328 2.59565C4.7085 2.59565 4.10342 2.74339 3.54636 3.02903L3.54636 10.8103C4.11302 10.6034 4.7085 10.5049 5.31359 10.5049Z" fill="url(#paint0_linear_962_1673)"/>
</g>
<defs>
<linearGradient id="paint0_linear_962_1673" x1="10.5" y1="1" x2="10.5" y2="20" gradientUnits="userSpaceOnUse">
<stop stop-color="#9A51AD"/>
<stop offset="1" stop-color="#4E2DB4"/>
</linearGradient>
</defs>
</svg>
