<svg width="20" height="21" viewBox="0 0 20 21" fill="none" xmlns="http://www.w3.org/2000/svg">
<mask id="mask0_962_11175" style="mask-type:alpha" maskUnits="userSpaceOnUse" x="0" y="0" width="20" height="21">
<rect y="0.482422" width="20" height="20" fill="#D9D9D9"/>
</mask>
<g mask="url(#mask0_962_11175)">
<path d="M8.86505 0.689027L0.477721 6.6821C0.181413 6.89636 -6.14066e-10 7.23917 -6.48003e-10 7.61259L-1.62383e-09 18.3499C-1.68058e-09 18.9743 0.50191 19.4824 1.11871 19.4824L5.61171 19.4824C6.22852 19.4824 6.73043 18.9743 6.73043 18.3499L6.73043 12.6262C6.73043 12.0018 7.23234 11.4937 7.84914 11.4937L11.1509 11.4937C11.7677 11.4937 12.2696 12.0018 12.2696 12.6262L12.2696 18.3499C12.2696 18.9743 12.7715 19.4824 13.3883 19.4824L17.8813 19.4824C18.4981 19.4824 19 18.9743 19 18.3499L19 7.61259C19 7.24529 18.8246 6.89636 18.5223 6.6821L10.1591 0.689027C9.77212 0.413554 9.25207 0.413554 8.86505 0.689027Z" fill="#9288C0"/>
</g>
</svg>
