<svg width="20" height="21" viewBox="0 0 20 21" fill="none" xmlns="http://www.w3.org/2000/svg">
<mask id="mask0_962_11210" style="mask-type:alpha" maskUnits="userSpaceOnUse" x="0" y="0" width="20" height="21">
<rect x="0.5" y="0.982422" width="19" height="19" fill="#D9D9D9" stroke="#3B3B7A"/>
</mask>
<g mask="url(#mask0_962_11210)">
<path d="M18.231 7.08853L18.2332 7.09006C18.4001 7.20833 18.5 7.40352 18.5 7.61259L18.5 18.3499C18.5 18.704 18.2162 18.9824 17.8813 18.9824L13.3883 18.9824C13.0534 18.9824 12.7696 18.704 12.7696 18.3499L12.7696 12.6262C12.7696 11.7314 12.0496 10.9937 11.1509 10.9937L7.84914 10.9937C6.95044 10.9937 6.23043 11.7314 6.23043 12.6262L6.23043 18.3499C6.23043 18.704 5.94662 18.9824 5.61171 18.9824L1.11871 18.9824C0.783808 18.9824 0.5 18.704 0.5 18.3499L0.5 7.61259C0.5 7.40397 0.600792 7.21059 0.769732 7.08797C0.770054 7.08774 0.770375 7.08751 0.770697 7.08727L9.155 1.09637C9.1551 1.0963 9.1552 1.09623 9.15531 1.09616C9.36856 0.944562 9.65536 0.944511 9.86866 1.096C9.86884 1.09612 9.86901 1.09625 9.86919 1.09637L18.231 7.08853Z" stroke="#3B3B7A"/>
</g>
</svg>
